<svg xmlns="http://www.w3.org/2000/svg" viewBox="0 0 300 340" fill="none">
  <path stroke="#bfc3c6" stroke-width="1" d="M150 18v304M24 170h252"/>
  <path fill="#a2a9af" d="M150 76c-35 0-62 26-62 59 0 18 7 33 19 44-6 17-21 30-32 51-11 20-16 40-16 66h182c0-26-5-46-16-66-11-21-26-34-32-51 12-11 19-26 19-44 0-33-27-59-62-59Z"/>
  <path stroke="#e4e6e7" stroke-width="2" d="m97 203 105 78M88 232l108 64m7-93-105 78m114-49-108 64"/>
  <path stroke="#a2a9af" stroke-width="3" d="M142 77c-7-15 4-25 16-19 9 5 5 15-2 14"/>
</svg>
